<?xml version="1.0" encoding="utf-8"?>
<!-- Generator: Adobe Illustrator 20.1.0, SVG Export Plug-In . SVG Version: 6.00 Build 0)  -->
<svg version="1.1" id="Layer_1" xmlns="http://www.w3.org/2000/svg" xmlns:xlink="http://www.w3.org/1999/xlink" x="0px" y="0px"
	 width="750px" height="550px" viewBox="0 0 750 550" style="enable-background:new 0 0 750 550;" xml:space="preserve">
<style type="text/css">
	.st0{fill:#FFFFFF;}
	.st1{fill:#3F2B2F;}
	.st2{fill:#FFBF3B;}
	.st3{fill:#231F20;}
</style>
<rect class="st0" width="750" height="550"/>
<g>
	<path class="st1" d="M337.5,394.1c-1.6,3.2-3.2,6.4-4.6,9.7c-0.5,1.1-1.9,5-2,5.1c-5.4-13.1-10.4-39.9-34-38.4
		c-5.8,0.4-23.9,5.6-33.8,8.5c5.1-13.3,7.8-27.7,7.8-42.8c0-5.9-0.4-11.7-1.2-17.4c5.6,1.4,25.8,5.1,28,5.7
		c13.6,3.4,24.5,6.7,33,15.1C346,354.5,346.4,376.1,337.5,394.1z"/>
	<g>
		<circle class="st2" cx="144" cy="336.2" r="108.9"/>
		<path class="st1" d="M144,450.4c-63,0-114.2-51.2-114.2-114.2S81.1,222,144,222s114.2,51.2,114.2,114.2S207,450.4,144,450.4z
			 M144,232.5c-57.2,0-103.7,46.5-103.7,103.7S86.9,439.9,144,439.9s103.7-46.5,103.7-103.7S201.2,232.5,144,232.5z"/>
	</g>
	<path class="st1" d="M189.7,421.3C189.7,421.3,189.6,421.3,189.7,421.3c-9.7,4.4-26.5,11.7-45.6,11.7s-35.8-7.3-45.5-11.7
		c0,0,0,0-0.1,0l9-20.1l20.8-46.3c4.3,3.6,9.7,5.7,15.7,5.7s11.5-2.2,15.7-5.7l20.9,46.4L189.7,421.3z"/>
	<path class="st1" d="M239.7,336.9L239.7,336.9l-21.9,2.3l-50.6,5.1c0.9-2.5,1.4-5.2,1.4-8.1c0-10-6-18.6-14.6-22.4l27.3-38L194,258
		h0.1c8.6,6.1,23.4,17,32.9,33.6C236.6,308.2,238.6,326.3,239.7,336.9z"/>
	<path class="st1" d="M119.6,336.2c0,1.7,0.2,3.4,0.5,5l-49.4-5L48.8,334v-0.1c1-10.5,3.1-28.7,12.6-45.3
		c9.5-16.5,24.3-27.4,32.8-33.6c0,0,0,0,0.1,0l12.9,17.9l28.9,40.1C126.5,316.3,119.6,325.4,119.6,336.2z"/>
	<g>
		<path class="st1" d="M159.6,336.2c0,8.6-7,15.6-15.6,15.6s-15.6-7-15.6-15.6s7-15.6,15.6-15.6S159.6,327.6,159.6,336.2z"/>
	</g>
	<path class="st3" d="M101.6,437.5C101.6,437.5,101.7,437.5,101.6,437.5L101.6,437.5L101.6,437.5z"/>
	<path class="st3" d="M196.9,437.4L196.9,437.4C196.8,437.4,196.9,437.4,196.9,437.4L196.9,437.4z"/>
	<path class="st1" d="M268.1,423.8c4.7,33-27,33-27,33c-30.9-0.8,0-36.4,0-36.4l22.2-29.6l15.2-3.4
		C266.9,396.6,268.1,423.8,268.1,423.8z"/>
	<path class="st1" d="M267.1,304.5c0-0.8,0-1.7,0-2.5c-0.9-31.6-22.5-55.9-49.4-72.5c-96.7-59.8-62-148.3-57.5-164.7
		c2.6,42.9,28.1,78.2,28.1,78.2c-3.5-33.5,17.2-53.6,17.2-53.6c-3.5,31.7,22.9,84.6,22.9,84.6c8.4-22.4,17.7-24.1,19.2-25.7
		c-5.5,25.1,8.3,56.1,12.9,65.3c1.1,2.1,2,4.4,2.8,6.6C287.5,290.9,267.1,304.5,267.1,304.5z"/>
	<g>
		<path class="st1" d="M336.9,209.7h16.7l39.8,91.4h-22.7l-7.9-19.4h-35.5l-7.6,19.4h-22.2L336.9,209.7z M344.6,236.3l-11.1,28.4
			h22.3L344.6,236.3z"/>
		<path class="st1" d="M440.3,253.9h-17v20.9c0,6.7,0.8,11.6,9.2,11.6c2.1,0,6.2-0.3,7.9-1.8v16.1c-4.3,1.5-9,1.9-13.6,1.9
			c-12.9,0-22.8-5.3-22.8-19v-29.8h-12.4v-15.5H404v-18.6h19.4v18.6h17v15.6H440.3z"/>
		<path class="st1" d="M480.2,236.8c19.4,0,34.9,12.9,34.9,32.9s-15.5,32.9-34.9,32.9s-34.9-12.9-34.9-32.9
			C445.3,249.8,460.8,236.8,480.2,236.8z M480.2,285.6c9.7,0,15.5-6.5,15.5-15.9s-5.8-15.9-15.5-15.9s-15.5,6.5-15.5,15.9
			C464.7,279.2,470.5,285.6,480.2,285.6z"/>
		<path class="st1" d="M523.9,238.4h18.6v8.5h0.3c2.6-4.9,8.9-10.1,18.3-10.1c8.8,0,16,3.6,19.4,11.2c4.5-8,10.6-11.2,19.9-11.2
			c17,0,22.2,12,22.2,27.2v37h-19.4v-36.5c0-5.8-2.2-10.7-8.5-10.7c-8.9,0-11.7,6.3-11.7,14.1v33.2h-19.4V268
			c0-4.6,0.3-14.1-8.6-14.1c-10.1,0-11.6,7.9-11.6,16v31.2H524L523.9,238.4L523.9,238.4z"/>
		<path class="st1" d="M643.7,207.4c6.2,0,11.2,5,11.2,11.2s-5,11.2-11.2,11.2s-11.2-5-11.2-11.2S637.5,207.4,643.7,207.4z
			 M634,238.4h19.4v62.7H634V238.4z"/>
		<path class="st1" d="M707.4,258.7c-1.9-2.7-5.6-4.8-9.6-4.8c-9.7,0-15.5,6.5-15.5,15.9s5.8,15.9,15.5,15.9c4.3,0,7.4-2.2,9.6-4.8
			l12.8,13.4c-6.1,6.2-15,8.4-22.3,8.4c-19.4,0-34.9-12.9-34.9-32.9s15.5-32.9,34.9-32.9c7.4,0,16.3,2.2,22.3,8.4L707.4,258.7z"/>
	</g>
	<g>
		<path class="st1" d="M358,320.4h25.6c14.1,0,27.4,4.6,27.4,21.1c0,10.6-6.1,18.4-17,20l19.5,32.5h-15.8l-17-31.2h-9.6V394H358
			V320.4z M381.3,351.6c7.4,0,16-0.6,16-10.2c0-8.7-8.1-9.8-14.9-9.8h-11.3v20H381.3z"/>
		<path class="st1" d="M445,342.9c15.1,0,27.1,10.5,27.1,26.2S460,395.3,445,395.3c-15.1,0-27.1-10.5-27.1-26.2
			S429.9,342.9,445,342.9z M445,384c9.1,0,14.7-7.2,14.7-15s-5.5-15-14.7-15c-9.1,0-14.7,7.2-14.7,15S435.8,384,445,384z"/>
		<path class="st1" d="M506.4,342.9c15.1,0,27.1,10.5,27.1,26.2s-12.1,26.2-27.1,26.2c-15.1,0-27.1-10.5-27.1-26.2
			S491.3,342.9,506.4,342.9z M506.4,384c9.1,0,14.7-7.2,14.7-15s-5.5-15-14.7-15c-9.1,0-14.7,7.2-14.7,15S497.3,384,506.4,384z"/>
		<path class="st1" d="M569.8,357.9c-2.4-3.3-5.5-5.1-9.8-5.1c-3.3,0-7.3,1.6-7.3,5.3c0,8.9,26.9,1.7,26.9,21.1
			c0,11.8-11.3,16-21.5,16c-7.7,0-14.3-2-19.4-7.7l8.3-7.8c3.2,3.5,6.5,6.1,11.8,6.1c3.6,0,8.3-1.8,8.3-5.7
			c0-10.3-26.9-2.2-26.9-21.2c0-11.1,10-16.1,20.1-16.1c6.7,0,13.7,2.1,17.8,7.6L569.8,357.9z"/>
		<path class="st1" d="M581.6,354.7v-10.6h10.3v-14.4h12.5v14.4H618v10.6h-13.7v21.8c0,5,1.5,8.1,7,8.1c2.2,0,5.2-0.4,6.8-1.6v10.5
			c-2.6,1.2-7,1.7-9.9,1.7c-13.2,0-16.3-5.9-16.3-17.7v-22.9h-10.3V354.7z"/>
		<path class="st1" d="M635.8,373.4c0.8,7.4,6.4,11.8,13.4,11.8c6.2,0,10.3-2.9,13.4-6.8l8.9,6.8c-5.8,7.2-13.2,10-21.1,10
			c-15.1,0-27.1-10.5-27.1-26.2s12.1-26.2,27.1-26.2c13.9,0,23.4,9.8,23.4,27.1v3.4h-38V373.4z M661.4,364.1
			c-0.1-7.3-4.9-11.8-12.7-11.8c-7.4,0-12,4.7-12.9,11.8H661.4z"/>
		<path class="st1" d="M683.5,344.1H696v7.9h0.2c2.7-5.7,8.2-9.1,14.8-9.1c1.6,0,3,0.3,4.5,0.7v12.1c-2.1-0.5-4.1-0.9-6-0.9
			c-11.7,0-13.4,9.9-13.4,12.6V394h-12.5L683.5,344.1L683.5,344.1z"/>
	</g>
</g>
</svg>
