<?xml version="1.0" encoding="utf-8"?>
<!-- Generator: Adobe Illustrator 20.1.0, SVG Export Plug-In . SVG Version: 6.00 Build 0)  -->
<svg version="1.1" id="Layer_1" xmlns="http://www.w3.org/2000/svg" xmlns:xlink="http://www.w3.org/1999/xlink" x="0px" y="0px"
	 width="750px" height="550px" viewBox="0 0 750 550" style="enable-background:new 0 0 750 550;" xml:space="preserve">
<style type="text/css">
	.st0{fill:#FFFFFF;}
	.st1{fill:#231F20;}
	.st2{font-family:'AvenirLTStd-Black';}
	.st3{font-size:134.3447px;}
	.st4{letter-spacing:-1;}
	.st5{font-family:'AvenirLTStd-Heavy';}
	.st6{font-size:108.1736px;}
</style>
<rect class="st0" width="750" height="550"/>
<g>
	<path class="st1" d="M338.2,394.7c-1.6,3.3-3.2,6.7-4.7,10.1c-0.5,1.1-2,5.2-2.1,5.3c-5.5-13.7-10.7-41.6-34.9-39.9
		c-6,0.4-24.5,5.8-34.7,8.9c5.2-13.9,8-28.9,8-44.6c0-6.1-0.4-12.2-1.3-18.1c5.8,1.4,26.5,5.3,28.7,5.9c14,3.6,25.2,6.9,33.9,15.7
		C346.9,353.5,347.3,375.9,338.2,394.7z"/>
	<ellipse class="st0" cx="139.5" cy="334.4" rx="111.9" ry="113.4"/>
	<path class="st1" d="M139.5,453.3c-64.7,0-117.3-53.3-117.3-118.8s52.6-118.8,117.3-118.8S256.8,269,256.8,334.5
		S204.1,453.3,139.5,453.3z M139.5,226.6C80.8,226.6,33,275,33,334.4s47.8,107.9,106.5,107.9S246,393.9,246,334.4
		S198.2,226.6,139.5,226.6z"/>
	<path class="st1" d="M186.3,423L186.3,423c-9.9,4.6-27.2,12.2-46.9,12.2c-19.6,0-36.8-7.6-46.7-12.1c0,0,0,0-0.1,0l9.3-20.9
		l21.4-48.2c4.4,3.7,10,5.9,16.1,5.9s11.8-2.2,16.1-6l21.5,48.3L186.3,423z"/>
	<path class="st1" d="M237.7,335.1C237.7,335.2,237.7,335.2,237.7,335.1l-22.5,2.4l-52,5.4c0.9-2.6,1.4-5.5,1.4-8.4
		c0-10.4-6.2-19.4-15-23.3l28.1-39.5l13.1-18.5h0.1c8.8,6.4,24,17.7,33.8,35C234.5,305.3,236.6,324.2,237.7,335.1z"/>
	<path class="st1" d="M114.3,334.4c0,1.8,0.2,3.5,0.5,5.2l-50.7-5.2l-22.4-2.3V332c1-10.9,3.2-29.9,13-47.2
		c9.8-17.2,24.9-28.5,33.7-34.9c0,0,0,0,0.1,0l13.2,18.6l29.7,41.8C121.5,313.7,114.3,323.2,114.3,334.4z"/>
	<g>
		<path class="st1" d="M155.5,334.4c0,8.9-7.2,16.2-16,16.2s-16-7.3-16-16.2c0-8.9,7.2-16.2,16-16.2
			C148.3,318.2,155.5,325.5,155.5,334.4z"/>
	</g>
	<path class="st1" d="M95.9,439.8C95.9,439.8,95.9,439.9,95.9,439.8L95.9,439.8L95.9,439.8z"/>
	<path class="st1" d="M193.8,439.8L193.8,439.8C193.7,439.8,193.7,439.8,193.8,439.8L193.8,439.8z"/>
	<path class="st1" d="M266.9,425.6c4.9,34.3-27.7,34.3-27.7,34.3c-31.7-0.9,0-37.9,0-37.9l22.8-30.8l15.6-3.5
		C265.6,397.3,266.9,425.6,266.9,425.6z"/>
	<path class="st1" d="M265.8,301.5c0-0.9,0-1.8,0-2.6c-0.9-32.9-23.1-58.2-50.8-75.5C115.7,161.1,151.3,69.1,156,52
		c2.7,44.7,28.8,81.4,28.8,81.4c-3.6-34.9,17.6-55.8,17.6-55.8c-3.6,33,23.6,88.1,23.6,88.1c8.6-23.3,18.2-25.1,19.7-26.8
		c-5.6,26.1,8.6,58.4,13.2,68c1.1,2.2,2,4.5,2.8,6.9C286.8,287.3,265.8,301.5,265.8,301.5z"/>
	<text transform="matrix(0.9868 0 0 1 297.0405 297.9551)" class="st1 st2 st3 st4">Atomic</text>
	<text transform="matrix(0.9868 0 0 1 350.7158 394.5986)" class="st1 st5 st6 st4">Rooster</text>
</g>
</svg>
