<?xml version="1.0" encoding="utf-8"?>
<!-- Generator: Adobe Illustrator 20.1.0, SVG Export Plug-In . SVG Version: 6.00 Build 0)  -->
<svg version="1.1" id="Layer_1" xmlns="http://www.w3.org/2000/svg" xmlns:xlink="http://www.w3.org/1999/xlink" x="0px" y="0px"
	 width="218px" height="218.1px" viewBox="0 0 218 218.1" style="enable-background:new 0 0 218 218.1;" xml:space="preserve">
<style type="text/css">
	.st0{fill:none;stroke:#FFFFFF;stroke-width:5;stroke-miterlimit:10;}
</style>
<path class="st0" d="M215.5,22c0,29,0,58,0,87c0,29,0,58,0,87c0,12.4-7.1,19.7-19.4,19.7c-58,0-115.9,0-173.9,0
	c-11.9,0-19.5-7.4-19.6-19.2c-0.1-58.1-0.1-116.3,0-174.4C2.6,10,10.1,2.5,21.9,2.5c58.1,0,116.3,0,174.4,0
	C208.3,2.5,215.4,9.9,215.5,22z"/>
<path class="st0" d="M91.8,104.4c9.2,1.4,13.8,7.2,16.5,14.9c8.8,24.8-5.5,45-31.8,45.1c-18.3,0-36.7,0-55,0c-1.8,0-3.6,0-5.7,0
	c0-36.9,0-73.3,0-110.7c6.6,0,13.2,0,19.8,0c13.3,0,26.7,0.3,40-0.2c16.6-0.6,25.4,7.7,28.5,17.2C108.3,83.7,104.3,95.1,91.8,104.4z
	 M40.7,145c11.5,0,22.3,0.3,33.1-0.1c6.8-0.2,11.2-5.5,11.6-12.6c0.5-9.1-2.9-15.3-10.7-15.9c-11.3-0.9-22.8-0.2-34.1-0.2
	C40.7,125.6,40.7,134.8,40.7,145z M40.8,72.7c0,9.2,0,17.9,0,27c9.1,0,17.7,0,26.4,0c8.6,0,13.1-4.3,13.3-12.6
	c0.2-9-4.2-14.1-12.8-14.3C58.8,72.5,50,72.7,40.8,72.7z"/>
<path class="st0" d="M200.3,129.7c-19.5,0-38.4,0-57.3,0c-1.6,9.1,6,18.7,15.6,19.8c7.8,0.9,15-0.2,19.8-7.6
	c0.5-0.8,1.8-1.5,2.8-1.6c6.3-0.1,12.6-0.1,19.1-0.1c0.4,7.3-2.1,12.8-6.7,17.5c-12.7,13-55.1,16.4-68.4-9
	c-9.1-17.4-8.7-35.1,1.7-51.7c8.7-13.8,22.9-17.2,38-15.9c22,1.9,34.6,16.2,35.5,38.8C200.4,123,200.3,126,200.3,129.7z
	 M178.8,114.4c-2.5-10.7-9.6-16.5-19.1-15.9c-8.2,0.5-14.8,7-16,15.9C155.2,114.4,166.8,114.4,178.8,114.4z"/>
<path class="st0" d="M183.7,61.8c0,3.7,0,7,0,10.5c-15.2,0-30.1,0-45.3,0c0-3.5,0-6.8,0-10.5C153.4,61.8,168.4,61.8,183.7,61.8z"/>
</svg>
