<svg xmlns="http://www.w3.org/2000/svg" width="218" height="218.1" viewBox="0 0 218 218.1"><style type="text/css">.st0{fill:none;stroke:#FFFFFF;stroke-width:5;stroke-miterlimit:10;}</style><path class="st0" d="M215.5 22v174c0 12.4-7.1 19.7-19.4 19.7h-173.9c-11.9 0-19.5-7.4-19.6-19.2-.1-58.1-.1-116.3 0-174.4 0-12.1 7.5-19.6 19.3-19.6h174.4c12 0 19.1 7.4 19.2 19.5zM91.8 104.4c9.2 1.4 13.8 7.2 16.5 14.9 8.8 24.8-5.5 45-31.8 45.1h-60.7v-110.7h19.8c13.3 0 26.7.3 40-.2 16.6-.6 25.4 7.7 28.5 17.2 4.2 13 .2 24.4-12.3 33.7zm-51.1 40.6c11.5 0 22.3.3 33.1-.1 6.8-.2 11.2-5.5 11.6-12.6.5-9.1-2.9-15.3-10.7-15.9-11.3-.9-22.8-.2-34.1-.2.1 9.4.1 18.6.1 28.8zm.1-72.3v27h26.4c8.6 0 13.1-4.3 13.3-12.6.2-9-4.2-14.1-12.8-14.3-8.9-.3-17.7-.1-26.9-.1zM200.3 129.7h-57.3c-1.6 9.1 6 18.7 15.6 19.8 7.8.9 15-.2 19.8-7.6.5-.8 1.8-1.5 2.8-1.6 6.3-.1 12.6-.1 19.1-.1.4 7.3-2.1 12.8-6.7 17.5-12.7 13-55.1 16.4-68.4-9-9.1-17.4-8.7-35.1 1.7-51.7 8.7-13.8 22.9-17.2 38-15.9 22 1.9 34.6 16.2 35.5 38.8 0 3.1-.1 6.1-.1 9.8zm-21.5-15.3c-2.5-10.7-9.6-16.5-19.1-15.9-8.2.5-14.8 7-16 15.9h35.1zM183.7 61.8v10.5h-45.3v-10.5h45.3z"/></svg>