<svg xmlns="http://www.w3.org/2000/svg" width="271.1" height="271.1" viewBox="0 0 271.1 271.1"><style type="text/css">.st0{fill:none;stroke:#FFFFFF;stroke-width:5;stroke-miterlimit:10;}</style><path class="st0" d="M2.5 252v-232.9c.1-.3.3-.6.4-1 1.5-6.3 5-10.9 10.9-13.6 1.8-.8 3.8-1.3 5.7-2h232.1l1.4.4c4.9 1.2 9.1 3.7 12.1 7.9 1.8 2.5 2.6 5.4 3.5 8.3v232.9l-.4 1.4c-1.6 6-4.9 10.5-10.6 13.1-1.9.9-3.9 1.4-5.9 2.1h-232.1l-1.4-.4c-6.2-1.5-11-4.9-13.7-10.8-.9-1.8-1.4-3.6-2-5.4zm102.9-87v57.6c0 2.8-.5 2.7 2.8 2.7h34.6c2.8 0 2.8 0 2.8-2.7v-50.1c0-5.8-.1-11.6.2-17.4.5-11.7 9.6-20.7 21.3-21.1 9-.3 15.5 4.2 18.5 12.6 1.8 5.1 2.2 10.4 2.2 15.7v60.8c0 2.3 0 2.3 2.4 2.3h35.7c2.3 0 2.3 0 2.3-2.4v-29.5c0-13.9 0-27.9-.3-41.8-.1-7.4-1.5-14.6-4.2-21.6-5.6-14.2-15.7-23.3-30.7-26.5-6.4-1.4-12.9-1.4-19.4-.5-4.2.6-8.1 2-11.8 3.9-6.1 3.1-10.9 7.8-14.8 13.4-.2.4-.7.6-1.1.9-.1-.4-.2-.8-.2-1.2v-12.3c0-2.4 0-2.4-2.5-2.4h-35.5c-.4 0-.9-.1-1.3.1s-.9.6-1 1c-.2.5 0 1.1 0 1.7v56.8zm-62.5.1v57.8c0 2.3 0 2.3 2.3 2.3h35.5c2.5 0 2.5 0 2.5-2.6v-115.2c0-2.4 0-2.4-2.5-2.4h-35.5c-2.4 0-2.4 0-2.4 2.5.1 19.2.1 38.4.1 57.6zm19.8-117.9c-1.1.1-2.1.1-3.1.3-10.5 1.3-18.3 8.5-19 19.4-.5 8.1 4.1 16 11.5 19.5 2.9 1.3 5.8 2.1 9 2.3 6 .3 11.5-.8 16.5-4.3 9.8-6.9 10.8-21.3 3-30-4.8-5.5-11.1-7.2-17.9-7.2zM105.4 165v-57.2c0-.6-.1-1.2 0-1.7.1-.4.6-.8 1-1 .3-.2.8-.1 1.3-.1h35.5c2.4 0 2.5 0 2.5 2.4v12.3l.2 1.2c.4-.3.8-.5 1.1-.9 3.9-5.6 8.7-10.3 14.8-13.4 3.7-1.9 7.7-3.3 11.8-3.9 6.5-.9 13-.9 19.4.5 15 3.3 25.1 12.3 30.7 26.5 2.7 6.9 4.1 14.2 4.2 21.6.2 13.9.2 27.9.3 41.8v29.5c0 2.4 0 2.4-2.3 2.4h-35.7c-2.3 0-2.4 0-2.4-2.3v-60.8c0-5.3-.3-10.6-2.2-15.7-3-8.4-9.5-12.9-18.5-12.6-11.7.4-20.9 9.4-21.3 21.1-.2 5.8-.2 11.6-.2 17.4v50.1c0 2.7 0 2.7-2.8 2.7h-34.6c-3.3 0-2.8.1-2.8-2.7v-57.2zM42.9 165.1v-57.6c0-2.4 0-2.5 2.4-2.5h35.5c2.4 0 2.5 0 2.5 2.4v115.2c0 2.6 0 2.6-2.5 2.6h-35.5c-2.3 0-2.3 0-2.3-2.3-.1-19.3-.1-38.5-.1-57.8zM62.7 47.2c6.8 0 13.1 1.7 17.9 7.1 7.8 8.7 6.8 23.1-3 30-5 3.5-10.5 4.6-16.5 4.3-3.2-.2-6.1-.9-9-2.3-7.3-3.4-12-11.4-11.5-19.5.7-10.9 8.5-18.1 19-19.4 1-.1 2-.1 3.1-.2z"/></svg>