<?xml version="1.0" encoding="utf-8"?>
<!-- Generator: Adobe Illustrator 20.1.0, SVG Export Plug-In . SVG Version: 6.00 Build 0)  -->
<svg version="1.1" id="Layer_1" xmlns="http://www.w3.org/2000/svg" xmlns:xlink="http://www.w3.org/1999/xlink" x="0px" y="0px"
	 width="271.1px" height="271.1px" viewBox="0 0 271.1 271.1" style="enable-background:new 0 0 271.1 271.1;" xml:space="preserve"
	>
<style type="text/css">
	.st0{fill:none;stroke:#FFFFFF;stroke-width:5;stroke-miterlimit:10;}
</style>
<path class="st0" d="M2.5,252c0-77.6,0-155.3,0-232.9c0.1-0.3,0.3-0.6,0.4-1c1.5-6.3,5-10.9,10.9-13.6c1.8-0.8,3.8-1.3,5.7-2
	c77.4,0,154.7,0,232.1,0c0.5,0.1,0.9,0.3,1.4,0.4c4.9,1.2,9.1,3.7,12.1,7.9c1.8,2.5,2.6,5.4,3.5,8.3c0,77.6,0,155.3,0,232.9
	c-0.1,0.5-0.3,0.9-0.4,1.4c-1.6,6-4.9,10.5-10.6,13.1c-1.9,0.9-3.9,1.4-5.9,2.1c-77.4,0-154.7,0-232.1,0c-0.5-0.1-0.9-0.3-1.4-0.4
	c-6.2-1.5-11-4.9-13.7-10.8C3.6,255.6,3.1,253.8,2.5,252z M105.4,165C105.4,165,105.4,165,105.4,165c0,19.2,0,38.4,0,57.6
	c0,2.8-0.5,2.7,2.8,2.7c11.5,0,23.1,0,34.6,0c2.8,0,2.8,0,2.8-2.7c0-16.7,0-33.4,0-50.1c0-5.8-0.1-11.6,0.2-17.4
	c0.5-11.7,9.6-20.7,21.3-21.1c9-0.3,15.5,4.2,18.5,12.6c1.8,5.1,2.2,10.4,2.2,15.7c0,20.3,0,40.5,0,60.8c0,2.3,0,2.3,2.4,2.3
	c11.9,0,23.8,0,35.7,0c2.3,0,2.3,0,2.3-2.4c0-9.8,0-19.7,0-29.5c0-13.9,0-27.9-0.3-41.8c-0.1-7.4-1.5-14.6-4.2-21.6
	c-5.6-14.2-15.7-23.3-30.7-26.5c-6.4-1.4-12.9-1.4-19.4-0.5c-4.2,0.6-8.1,2-11.8,3.9c-6.1,3.1-10.9,7.8-14.8,13.4
	c-0.2,0.4-0.7,0.6-1.1,0.9c-0.1-0.4-0.2-0.8-0.2-1.2c0-4.1,0-8.2,0-12.3c0-2.4,0-2.4-2.5-2.4c-11.8,0-23.7,0-35.5,0
	c-0.4,0-0.9-0.1-1.3,0.1c-0.4,0.2-0.9,0.6-1,1c-0.2,0.5,0,1.1,0,1.7C105.4,126.9,105.4,145.9,105.4,165z M42.9,165.1
	c0,19.3,0,38.5,0,57.8c0,2.3,0,2.3,2.3,2.3c11.8,0,23.7,0,35.5,0c2.5,0,2.5,0,2.5-2.6c0-38.4,0-76.8,0-115.2c0-2.4,0-2.4-2.5-2.4
	c-11.8,0-23.7,0-35.5,0c-2.4,0-2.4,0-2.4,2.5C42.9,126.7,42.9,145.9,42.9,165.1z M62.7,47.2c-1.1,0.1-2.1,0.1-3.1,0.3
	c-10.5,1.3-18.3,8.5-19,19.4c-0.5,8.1,4.1,16,11.5,19.5c2.9,1.3,5.8,2.1,9,2.3c6,0.3,11.5-0.8,16.5-4.3c9.8-6.9,10.8-21.3,3-30
	C75.8,48.9,69.5,47.2,62.7,47.2z"/>
<path class="st0" d="M105.4,165c0-19.1,0-38.1,0-57.2c0-0.6-0.1-1.2,0-1.7c0.1-0.4,0.6-0.8,1-1c0.3-0.2,0.8-0.1,1.3-0.1
	c11.8,0,23.7,0,35.5,0c2.4,0,2.5,0,2.5,2.4c0,4.1,0,8.2,0,12.3c0,0.4,0.2,0.8,0.2,1.2c0.4-0.3,0.8-0.5,1.1-0.9
	c3.9-5.6,8.7-10.3,14.8-13.4c3.7-1.9,7.7-3.3,11.8-3.9c6.5-0.9,13-0.9,19.4,0.5c15,3.3,25.1,12.3,30.7,26.5
	c2.7,6.9,4.1,14.2,4.2,21.6c0.2,13.9,0.2,27.9,0.3,41.8c0,9.8,0,19.7,0,29.5c0,2.4,0,2.4-2.3,2.4c-11.9,0-23.8,0-35.7,0
	c-2.3,0-2.4,0-2.4-2.3c0-20.3,0-40.5,0-60.8c0-5.3-0.3-10.6-2.2-15.7c-3-8.4-9.5-12.9-18.5-12.6c-11.7,0.4-20.9,9.4-21.3,21.1
	c-0.2,5.8-0.2,11.6-0.2,17.4c0,16.7,0,33.4,0,50.1c0,2.7,0,2.7-2.8,2.7c-11.5,0-23.1,0-34.6,0c-3.3,0-2.8,0.1-2.8-2.7
	C105.4,203.3,105.4,184.2,105.4,165C105.4,165,105.4,165,105.4,165z"/>
<path class="st0" d="M42.9,165.1c0-19.2,0-38.4,0-57.6c0-2.4,0-2.5,2.4-2.5c11.8,0,23.7,0,35.5,0c2.4,0,2.5,0,2.5,2.4
	c0,38.4,0,76.8,0,115.2c0,2.6,0,2.6-2.5,2.6c-11.8,0-23.7,0-35.5,0c-2.3,0-2.3,0-2.3-2.3C42.9,203.6,42.9,184.4,42.9,165.1z"/>
<path class="st0" d="M62.7,47.2c6.8,0,13.1,1.7,17.9,7.1c7.8,8.7,6.8,23.1-3,30c-5,3.5-10.5,4.6-16.5,4.3c-3.2-0.2-6.1-0.9-9-2.3
	c-7.3-3.4-12-11.4-11.5-19.5c0.7-10.9,8.5-18.1,19-19.4C60.6,47.3,61.6,47.3,62.7,47.2z"/>
</svg>
