<?xml version="1.0" encoding="utf-8"?>
<!-- Generator: Adobe Illustrator 20.1.0, SVG Export Plug-In . SVG Version: 6.00 Build 0)  -->
<svg version="1.1" id="Layer_1" xmlns="http://www.w3.org/2000/svg" xmlns:xlink="http://www.w3.org/1999/xlink" x="0px" y="0px"
	 width="170.2px" height="135.6px" viewBox="0 0 170.2 135.6" style="enable-background:new 0 0 170.2 135.6;" xml:space="preserve"
	>
<style type="text/css">
	.st0{fill:#FFFFFF;}
</style>
<g>
	<g>
		<path class="st0" d="M0.1,0h21l31.1,91.4L83,0h20.8v108.1h-14V44.3c0-2.2,0-5.9,0.1-11c0.1-5.1,0.1-10.6,0.1-16.4l-30.9,91.2H44.8
			L13.6,16.9v3.3c0,2.6,0.1,6.7,0.2,12.1c0.1,5.4,0.2,9.4,0.2,12v63.8h-14V0z"/>
		<path class="st0" d="M89.8,0h48.4c9.6,0,17.3,2.7,23.2,8.1c5.9,5.4,8.8,13,8.8,22.8c0,8.4-2.6,15.8-7.9,22
			c-5.2,6.3-13.3,9.4-24.1,9.4h-33.8v45.7H89.8V0z M146.6,14.9c-3.2-1.5-7.6-2.3-13.2-2.3h-28.9V50h28.9c6.5,0,11.8-1.4,15.9-4.2
			c4.1-2.8,6.1-7.7,6.1-14.8C155.4,23.1,152.5,17.7,146.6,14.9z"/>
	</g>
	<circle class="st0" cx="152.6" cy="100.7" r="7.4"/>
	<circle class="st0" cx="122.3" cy="100.7" r="7.4"/>
	<g>
		<path class="st0" d="M11.9,130.9l-0.3-6c-0.1-2.1-0.2-4.3-0.1-6L9,129.3H6l-2.7-10.4c0.1,2.1,0.1,4,0,6.1L3,130.9H0l1.2-14.7h4
			l2.4,10.2l2.3-10.2h4l1.1,14.7H11.9z"/>
		<path class="st0" d="M27,129.2l-0.6,2c-1.3-0.1-2.1-0.5-2.6-1.7c-0.8,1.2-2,1.7-3.4,1.7c-2.3,0-3.7-1.4-3.7-3.5
			c0-2.5,1.9-3.8,5.2-3.8h1.3v-0.6c0-1.4-0.6-1.9-2-1.9c-0.7,0-1.8,0.2-3,0.6l-0.7-2c1.4-0.6,2.9-0.8,4.2-0.8c3.1,0,4.5,1.4,4.5,3.9
			v4.6C26.2,128.7,26.5,129,27,129.2z M23.2,127.8v-2.2h-1c-1.6,0-2.4,0.6-2.4,1.8c0,1,0.5,1.6,1.4,1.6
			C22.1,129.1,22.8,128.6,23.2,127.8z"/>
		<path class="st0" d="M36,120.7c1.4,0.6,2.1,1.5,2.1,2.9c0,2.2-1.8,3.8-4.6,3.8c-0.5,0-0.9,0-1.3-0.1c-0.3,0.2-0.4,0.4-0.4,0.7
			c0,0.4,0.2,0.7,1.3,0.7h1.7c2.6,0,4.2,1.4,4.2,3.2c0,2.3-2,3.7-5.7,3.7c-4.1,0-5.3-1.3-5.3-3.6h2.7c0,1.1,0.5,1.5,2.6,1.5
			c2.1,0,2.6-0.6,2.6-1.4c0-0.8-0.6-1.2-1.8-1.2h-1.7c-2.4,0-3.3-1-3.3-2.2c0-0.8,0.5-1.6,1.3-2.1c-1.4-0.8-2-1.8-2-3.2
			c0-2.5,2-4.1,4.8-4.1c2.6,0.1,3.9-0.6,5.3-1.4l0.7,2.3C38.5,120.6,37.4,120.7,36,120.7z M31.5,123.3c0,1.3,0.7,2.1,1.9,2.1
			c1.2,0,1.9-0.7,1.9-2.1c0-1.3-0.6-2-1.9-2C32.2,121.3,31.5,122.1,31.5,123.3z"/>
		<path class="st0" d="M47.6,120.7c1.4,0.6,2.1,1.5,2.1,2.9c0,2.2-1.8,3.8-4.6,3.8c-0.5,0-0.9,0-1.3-0.1c-0.3,0.2-0.4,0.4-0.4,0.7
			c0,0.4,0.2,0.7,1.3,0.7h1.7c2.6,0,4.2,1.4,4.2,3.2c0,2.3-2,3.7-5.7,3.7c-4.1,0-5.3-1.3-5.3-3.6h2.7c0,1.1,0.5,1.5,2.6,1.5
			c2.1,0,2.6-0.6,2.6-1.4c0-0.8-0.6-1.2-1.8-1.2h-1.7c-2.4,0-3.3-1-3.3-2.2c0-0.8,0.5-1.6,1.3-2.1c-1.4-0.8-2-1.8-2-3.2
			c0-2.5,2-4.1,4.8-4.1c2.6,0.1,3.9-0.6,5.3-1.4l0.7,2.3C50.1,120.6,49,120.7,47.6,120.7z M43.1,123.3c0,1.3,0.7,2.1,1.9,2.1
			c1.2,0,1.9-0.7,1.9-2.1c0-1.3-0.6-2-1.9-2C43.8,121.3,43.1,122.1,43.1,123.3z"/>
		<path class="st0" d="M55.7,115.6c0,1-0.8,1.8-1.9,1.8c-1.1,0-1.8-0.8-1.8-1.8c0-1,0.7-1.8,1.8-1.8C55,113.8,55.7,114.6,55.7,115.6
			z M52.4,130.9v-11.3h3v11.3H52.4z"/>
		<path class="st0" d="M67.9,126.2h-7.1c0.2,2.2,1.2,2.8,2.7,2.8c1,0,1.8-0.3,2.7-1l1.3,1.7c-1.1,0.9-2.5,1.5-4.3,1.5
			c-3.6,0-5.5-2.4-5.5-5.9c0-3.4,1.8-6,5.1-6c3.2,0,5.1,2.1,5.1,5.7C67.9,125.4,67.9,125.9,67.9,126.2z M64.9,124.2
			c0-1.7-0.6-2.8-2-2.8c-1.2,0-1.9,0.8-2.1,2.9h4.1V124.2z"/>
		<path class="st0" d="M86,120.9c0,3.4-2.4,5-5.8,5h-1.7v5h-3.1v-14.7H80C83.7,116.2,86,117.7,86,120.9z M82.8,120.9
			c0-1.7-1-2.5-2.9-2.5h-1.4v5.2H80C81.7,123.6,82.8,122.9,82.8,120.9z"/>
		<path class="st0" d="M96.9,129.2l-0.6,2c-1.3-0.1-2.1-0.5-2.6-1.7c-0.8,1.2-2,1.7-3.4,1.7c-2.3,0-3.7-1.4-3.7-3.5
			c0-2.5,1.9-3.8,5.2-3.8h1.3v-0.6c0-1.4-0.6-1.9-2-1.9c-0.7,0-1.8,0.2-3,0.6l-0.7-2c1.4-0.6,2.9-0.8,4.2-0.8c3.1,0,4.5,1.4,4.5,3.9
			v4.6C96,128.7,96.3,129,96.9,129.2z M93.1,127.8v-2.2h-1c-1.6,0-2.4,0.6-2.4,1.8c0,1,0.5,1.6,1.4,1.6
			C91.9,129.1,92.6,128.6,93.1,127.8z"/>
		<path class="st0" d="M108.7,135.6l-3-0.3v-5.5c-0.7,0.9-1.7,1.5-3,1.5c-2.8,0-4.3-2.4-4.3-6c0-3.5,1.7-6,4.6-6
			c1.1,0,2.2,0.5,2.9,1.4l0.2-1h2.6V135.6z M105.7,127.6v-5c-0.6-0.7-1.1-1.1-1.9-1.1c-1.3,0-2.2,1.1-2.2,3.7c0,2.8,0.8,3.7,2,3.7
			C104.5,129,105.1,128.5,105.7,127.6z"/>
		<path class="st0" d="M118.3,130.9l-0.1-1.5c-0.8,1.3-1.9,1.9-3.4,1.9c-2.1,0-3.2-1.3-3.2-3.5v-8.1h3v7.7c0,1.2,0.4,1.6,1.2,1.6
			c0.8,0,1.5-0.6,2.1-1.5v-7.9h3v11.3H118.3z"/>
		<path class="st0" d="M133.4,126.2h-7.1c0.2,2.2,1.2,2.8,2.7,2.8c1,0,1.8-0.3,2.7-1l1.3,1.7c-1.1,0.9-2.5,1.5-4.3,1.5
			c-3.6,0-5.5-2.4-5.5-5.9c0-3.4,1.8-6,5.1-6c3.2,0,5.1,2.1,5.1,5.7C133.5,125.4,133.4,125.9,133.4,126.2z M130.5,124.2
			c0-1.7-0.6-2.8-2-2.8c-1.2,0-1.9,0.8-2.1,2.9h4.1V124.2z"/>
		<path class="st0" d="M139.5,131.3c-2.3,0-3.5-1.4-3.5-3.9v-5.6h-1.7v-2.1h1.7v-2.5l3-0.4v2.8h2.6l-0.3,2.1H139v5.6
			c0,1.1,0.4,1.5,1.1,1.5c0.4,0,0.8-0.1,1.3-0.4l1,1.9C141.6,131,140.5,131.3,139.5,131.3z"/>
		<path class="st0" d="M147.6,131.3c-2.3,0-3.5-1.4-3.5-3.9v-5.6h-1.7v-2.1h1.7v-2.5l3-0.4v2.8h2.6l-0.3,2.1h-2.3v5.6
			c0,1.1,0.4,1.5,1.1,1.5c0.4,0,0.8-0.1,1.3-0.4l1,1.9C149.7,131,148.6,131.3,147.6,131.3z"/>
		<path class="st0" d="M161.2,126.2h-7.1c0.2,2.2,1.2,2.8,2.7,2.8c1,0,1.8-0.3,2.7-1l1.3,1.7c-1.1,0.9-2.5,1.5-4.3,1.5
			c-3.6,0-5.5-2.4-5.5-5.9c0-3.4,1.8-6,5.1-6c3.2,0,5.1,2.1,5.1,5.7C161.2,125.4,161.2,125.9,161.2,126.2z M158.2,124.2
			c0-1.7-0.6-2.8-2-2.8c-1.2,0-1.9,0.8-2.1,2.9h4.1V124.2z"/>
	</g>
</g>
</svg>
