<?xml version="1.0" encoding="utf-8"?>
<!-- Generator: Adobe Illustrator 20.1.0, SVG Export Plug-In . SVG Version: 6.00 Build 0)  -->
<svg version="1.1" id="Layer_1" xmlns="http://www.w3.org/2000/svg" xmlns:xlink="http://www.w3.org/1999/xlink" x="0px" y="0px"
	 width="270.7px" height="270.7px" viewBox="0 0 270.7 270.7" style="enable-background:new 0 0 270.7 270.7;" xml:space="preserve"
	>
<style type="text/css">
	.st0{fill:#FFFFFF;}
	.st1{fill:none;stroke:#FFFFFF;stroke-width:5;stroke-miterlimit:10;}
</style>
<g>
	<path class="st0" d="M221.7,5.4c0.2,0.1,0.4,0.1,0.7,0.2c1,0.2,2,0.5,3.1,0.6c8.6,1.4,16.3,5,22.9,10.6c8.4,7.1,13.9,16,16.3,26.3
		c0.4,1.7,0.7,3.3,1.1,5c0.1,0.6,0.3,1.2,0.4,1.8v171.9c0,0.1-0.1,0.3-0.1,0.4c-0.2,0.7-0.3,1.3-0.5,2c-0.3,1.2-0.6,2.3-0.8,3.4
		c-0.5,2.4-1.1,4.6-1.8,6.6c-6.3,16.1-17.5,26.1-34.3,30.5c-1.6,0.4-3.2,0.7-4.9,1.1c-0.6,0.1-1.3,0.3-1.9,0.4H49.9
		c-1.1-0.2-2.1-0.5-3.2-0.7c-2.5-0.5-4.9-1-7-1.7c-17.4-6.1-28.1-17.6-32.7-35.2c-0.4-1.6-0.8-3.2-1.1-4.9c-0.1-0.6-0.3-1.3-0.4-1.9
		V49.9c0.2-1.1,0.5-2.1,0.7-3.2c0.5-2.5,1-4.9,1.7-7c6.1-17.4,17.6-28,35-32.7c1.6-0.4,3.3-0.8,5-1.1c0.7-0.1,1.3-0.3,2-0.4H221.7
		 M142.7,100.1h7.7c1.3,0,2.6,0,3.8,0c1.1,0,2.2,0,3.2,0c1.4,0,2.6,0,3.7,0.1c6.4,0.3,9.2,3,9.3,8.9c0.1,4-0.3,8.1-1.3,11.9
		c-1.8,7.4-5.3,14.2-10.1,22.1c-2.2,3.6-4.7,7.1-7.5,10.3c-1.2,1.4-2.6,2.2-3.9,2.2c-0.6,0-1.3-0.2-1.9-0.5c-1.4-0.7-3-2.1-4.6-3.9
		c-4.6-5.3-6.2-12.2-7.3-18.3c-0.7-4.1-1.2-8.3-1.6-12.4c-0.4-3.5-0.8-7.1-1.3-10.6c-1.6-10.6-3.1-19.4-4.8-27.7
		c-1.6-8.1-4.2-14.8-8.1-20.6c-5-7.5-11.4-11.3-19.1-11.3c-1.4,0-2.9,0.1-4.4,0.4c-4,0.7-7.8,1.9-11.3,3.5c-8.7,4-16.2,9.8-22.4,15
		C55.2,74,49.4,79,43.8,83.9c-2.7,2.4-5.5,4.8-8.2,7.1l0,0c-4.9,4.2-5.2,7.1-1.4,12.3c0.1,0.2,0.3,0.5,0.4,0.7l0.2,0.3
		c2.6,4.6,6.8,7.1,11.8,7.1c1.2,0,2.5-0.2,3.8-0.5c3.2-0.7,6.4-1.6,9.5-2.5c1.4-0.4,2.5-0.6,3.5-0.6c1.1,0,2.6,0,4.4,4
		c1.9,4.2,3.5,8.8,5,13.3c4.8,14,8.6,28.6,12.2,42.8c1.1,4.3,2.2,8.8,3.4,13.2c2.8,10.7,6.3,21.9,13.1,31.8
		c3.2,4.7,8.5,11.1,17.5,13c1.9,0.4,3.8,0.6,5.8,0.6c3.2,0,6.5-0.5,10.3-1.6c10.8-3,19.5-9.2,27.3-15.4c8.2-6.6,16.3-14.8,25.4-25.7
		c8.8-10.6,17-22.9,25.3-37.6c10.1-17.9,17.7-35,23.3-52c2.3-7,4.7-15.3,4-24.4c-0.8-10.3-5.9-17.7-14.5-21.4
		c-5.9-2.6-12.1-3.9-18.4-3.9c-5,0-10.1,0.8-15,2.5c-17.8,6-31.6,17.5-41.1,34.4c-1.4,2.6-2.5,5.1-3.7,7.8c-0.5,1.2-1,2.4-1.6,3.7
		L142.7,100.1 M222.3,0.4c-57.7,0-115.3,0-173,0c-2.6,0.6-5.2,1-7.8,1.7C22.3,7.2,9.6,19.4,3.1,38c-1.3,3.6-1.8,7.5-2.7,11.3
		c0,57.7,0,115.3,0,173c0.6,2.5,1,5.1,1.7,7.6c5.1,19.3,17.2,32.1,35.9,38.6c3.6,1.3,7.5,1.8,11.3,2.7c57.7,0,115.3,0,173,0
		c2.5-0.6,5.1-1,7.5-1.7c18.3-4.7,30.9-16,37.7-33.5c1.3-3.4,1.9-7,2.9-10.6c0.3-1,0.5-2.1,0.8-3.1c0-57.7,0-115.3,0-173
		c-0.5-2.4-1-4.9-1.6-7.3c-2.7-11.7-8.8-21.3-17.9-29c-7.3-6.2-15.8-10.1-25.4-11.7C224.9,1.1,223.6,0.7,222.3,0.4L222.3,0.4z
		 M150.4,95.1c1.8-4,3.1-7.7,5.1-11.1c8.7-15.5,21.6-26.4,38.4-32.1c4.4-1.5,8.9-2.2,13.4-2.2c5.5,0,11.1,1.1,16.4,3.4
		c7.4,3.2,10.8,9.4,11.5,17.2c0.6,7.8-1.4,15.1-3.8,22.4c-5.9,17.8-13.8,34.8-23,51.1c-7.3,12.9-15.3,25.4-24.8,36.8
		c-7.5,9.1-15.5,17.7-24.6,25c-7.7,6.2-15.8,11.8-25.5,14.5c-3,0.8-5.9,1.4-8.9,1.4c-1.6,0-3.1-0.1-4.7-0.5
		c-6.5-1.4-10.8-5.8-14.4-10.9C99.1,201,95.8,190.6,93,180c-4.9-18.9-9.3-37.9-15.7-56.4c-1.6-4.6-3.2-9.2-5.2-13.7
		c-2.1-4.8-4.9-6.9-9-6.9c-1.5,0-3.1,0.3-4.9,0.8c-3,0.9-6.1,1.7-9.2,2.4c-0.9,0.2-1.8,0.3-2.7,0.3c-3.1,0-5.6-1.5-7.4-4.6
		c-0.3-0.5-0.6-1-0.9-1.5c-2.3-3.1-2.3-3.1,0.7-5.6c8.4-7.3,16.8-14.7,25.4-21.8c6.6-5.5,13.4-10.7,21.2-14.3
		c3.2-1.5,6.6-2.5,10.1-3.1c1.2-0.2,2.4-0.3,3.5-0.3c6.3,0,11.2,3.4,15,9.1c3.8,5.7,6,12.1,7.4,18.8c1.8,9.1,3.3,18.3,4.7,27.5
		c1.2,7.7,1.7,15.5,3,23.1c1.3,7.5,3.3,14.8,8.4,20.8c1.7,2,3.8,3.9,6.1,5.1c1.4,0.7,2.8,1,4.2,1c2.8,0,5.5-1.3,7.7-3.9
		c3-3.4,5.6-7.1,8-10.9c4.5-7.4,8.6-15,10.7-23.5c1-4.3,1.5-8.8,1.4-13.2c-0.2-8.8-5.2-13.4-14.1-13.8c-1.3-0.1-2.6-0.1-3.9-0.1
		C155.3,95,153,95.1,150.4,95.1L150.4,95.1z"/>
</g>
<path class="st1" d="M150.4,95.1c1.8-4,3.1-7.7,5.1-11.1c8.7-15.5,21.6-26.4,38.4-32.1c9.8-3.3,20.1-3,29.8,1.2
	c7.4,3.2,10.8,9.4,11.5,17.2c0.6,7.8-1.4,15.1-3.8,22.4c-5.9,17.8-13.8,34.8-23,51.1c-7.3,12.9-15.3,25.4-24.8,36.8
	c-7.5,9.1-15.5,17.7-24.6,25c-7.7,6.2-15.8,11.8-25.5,14.5c-4.5,1.3-9.1,1.9-13.7,0.9c-6.5-1.4-10.8-5.8-14.4-10.9
	C99.1,201,95.8,190.6,93,180c-4.9-18.9-9.3-37.9-15.7-56.4c-1.6-4.6-3.2-9.2-5.2-13.7c-2.9-6.5-7-8.2-13.8-6.1
	c-3,0.9-6.1,1.7-9.2,2.4c-4.4,1-7.8-0.3-10.1-4.3c-0.3-0.5-0.6-1-0.9-1.5c-2.3-3.1-2.3-3.1,0.7-5.6c8.4-7.3,16.8-14.7,25.4-21.8
	c6.6-5.5,13.4-10.7,21.2-14.3c3.2-1.5,6.6-2.5,10.1-3.1c8.1-1.5,14,2.1,18.5,8.7c3.8,5.7,6,12.1,7.4,18.8c1.8,9.1,3.3,18.3,4.7,27.5
	c1.2,7.7,1.7,15.5,3,23.1c1.3,7.5,3.3,14.8,8.4,20.8c1.7,2,3.8,3.9,6.1,5.1c4,2.1,8.5,1,11.9-2.8c3-3.4,5.6-7.1,8-10.9
	c4.5-7.4,8.6-15,10.7-23.5c1-4.3,1.5-8.8,1.4-13.2c-0.2-8.8-5.2-13.4-14.1-13.8C157.9,94.9,154.5,95.1,150.4,95.1z"/>
</svg>
