<svg xmlns="http://www.w3.org/2000/svg" width="270.7" height="270.7" viewBox="0 0 270.7 270.7"><style type="text/css">.st0{fill:#FFFFFF;} .st1{fill:none;stroke:#FFFFFF;stroke-width:5;stroke-miterlimit:10;}</style><path class="st0" d="M221.7 5.4c.2.1.4.1.7.2 1 .2 2 .5 3.1.6 8.6 1.4 16.3 5 22.9 10.6 8.4 7.1 13.9 16 16.3 26.3l1.1 5 .4 1.8v171.9l-.1.4-.5 2c-.3 1.2-.6 2.3-.8 3.4-.5 2.4-1.1 4.6-1.8 6.6-6.3 16.1-17.5 26.1-34.3 30.5-1.6.4-3.2.7-4.9 1.1l-1.9.4h-172l-3.2-.7c-2.5-.5-4.9-1-7-1.7-17.4-6.1-28.1-17.6-32.7-35.2-.4-1.6-.8-3.2-1.1-4.9l-.4-1.9v-171.9l.7-3.2c.5-2.5 1-4.9 1.7-7 6.1-17.4 17.6-28 35-32.7 1.6-.4 3.3-.8 5-1.1l2-.4h171.8m-79 94.6h14.7c1.4 0 2.6 0 3.7.1 6.4.3 9.2 3 9.3 8.9.1 4-.3 8.1-1.3 11.9-1.8 7.4-5.3 14.2-10.1 22.1-2.2 3.6-4.7 7.1-7.5 10.3-1.2 1.4-2.6 2.2-3.9 2.2-.6 0-1.3-.2-1.9-.5-1.4-.7-3-2.1-4.6-3.9-4.6-5.3-6.2-12.2-7.3-18.3-.7-4.1-1.2-8.3-1.6-12.4-.4-3.5-.8-7.1-1.3-10.6-1.6-10.6-3.1-19.4-4.8-27.7-1.6-8.1-4.2-14.8-8.1-20.6-5-7.5-11.4-11.3-19.1-11.3-1.4 0-2.9.1-4.4.4-4 .7-7.8 1.9-11.3 3.5-8.7 4-16.2 9.8-22.4 15-5.6 4.8-11.4 9.8-17 14.7-2.7 2.4-5.5 4.8-8.2 7.1-4.9 4.2-5.2 7.1-1.4 12.3l.4.7.2.3c2.6 4.6 6.8 7.1 11.8 7.1 1.2 0 2.5-.2 3.8-.5 3.2-.7 6.4-1.6 9.5-2.5 1.4-.4 2.5-.6 3.5-.6 1.1 0 2.6 0 4.4 4 1.9 4.2 3.5 8.8 5 13.3 4.8 14 8.6 28.6 12.2 42.8 1.1 4.3 2.2 8.8 3.4 13.2 2.8 10.7 6.3 21.9 13.1 31.8 3.2 4.7 8.5 11.1 17.5 13 1.9.4 3.8.6 5.8.6 3.2 0 6.5-.5 10.3-1.6 10.8-3 19.5-9.2 27.3-15.4 8.2-6.6 16.3-14.8 25.4-25.7 8.8-10.6 17-22.9 25.3-37.6 10.1-17.9 17.7-35 23.3-52 2.3-7 4.7-15.3 4-24.4-.8-10.3-5.9-17.7-14.5-21.4-5.9-2.6-12.1-3.9-18.4-3.9-5 0-10.1.8-15 2.5-17.8 6-31.6 17.5-41.1 34.4-1.4 2.6-2.5 5.1-3.7 7.8-.5 1.2-1 2.4-1.6 3.7l-3.4 7.2m79.6-99.7h-173c-2.6.6-5.2 1-7.8 1.7-19.2 5.1-31.9 17.3-38.4 35.9-1.3 3.6-1.8 7.5-2.7 11.3v173c.6 2.5 1 5.1 1.7 7.6 5.1 19.3 17.2 32.1 35.9 38.6 3.6 1.3 7.5 1.8 11.3 2.7h173c2.5-.6 5.1-1 7.5-1.7 18.3-4.7 30.9-16 37.7-33.5 1.3-3.4 1.9-7 2.9-10.6l.8-3.1v-173c-.5-2.4-1-4.9-1.6-7.3-2.7-11.7-8.8-21.3-17.9-29-7.3-6.2-15.8-10.1-25.4-11.7-1.4-.2-2.7-.6-4-.9zm-71.9 94.7c1.8-4 3.1-7.7 5.1-11.1 8.7-15.5 21.6-26.4 38.4-32.1 4.4-1.5 8.9-2.2 13.4-2.2 5.5 0 11.1 1.1 16.4 3.4 7.4 3.2 10.8 9.4 11.5 17.2.6 7.8-1.4 15.1-3.8 22.4-5.9 17.8-13.8 34.8-23 51.1-7.3 12.9-15.3 25.4-24.8 36.8-7.5 9.1-15.5 17.7-24.6 25-7.7 6.2-15.8 11.8-25.5 14.5-3 .8-5.9 1.4-8.9 1.4-1.6 0-3.1-.1-4.7-.5-6.5-1.4-10.8-5.8-14.4-10.9-6.4-9.1-9.7-19.5-12.5-30.1-4.9-18.9-9.3-37.9-15.7-56.4-1.6-4.6-3.2-9.2-5.2-13.7-2.1-4.8-4.9-6.9-9-6.9-1.5 0-3.1.3-4.9.8-3 .9-6.1 1.7-9.2 2.4-.9.2-1.8.3-2.7.3-3.1 0-5.6-1.5-7.4-4.6l-.9-1.5c-2.3-3.1-2.3-3.1.7-5.6 8.4-7.3 16.8-14.7 25.4-21.8 6.6-5.5 13.4-10.7 21.2-14.3 3.2-1.5 6.6-2.5 10.1-3.1 1.2-.2 2.4-.3 3.5-.3 6.3 0 11.2 3.4 15 9.1 3.8 5.7 6 12.1 7.4 18.8 1.8 9.1 3.3 18.3 4.7 27.5 1.2 7.7 1.7 15.5 3 23.1 1.3 7.5 3.3 14.8 8.4 20.8 1.7 2 3.8 3.9 6.1 5.1 1.4.7 2.8 1 4.2 1 2.8 0 5.5-1.3 7.7-3.9 3-3.4 5.6-7.1 8-10.9 4.5-7.4 8.6-15 10.7-23.5 1-4.3 1.5-8.8 1.4-13.2-.2-8.8-5.2-13.4-14.1-13.8-1.3-.1-2.6-.1-3.9-.1-2.2-.3-4.5-.2-7.1-.2z"/><path class="st1" d="M150.4 95.1c1.8-4 3.1-7.7 5.1-11.1 8.7-15.5 21.6-26.4 38.4-32.1 9.8-3.3 20.1-3 29.8 1.2 7.4 3.2 10.8 9.4 11.5 17.2.6 7.8-1.4 15.1-3.8 22.4-5.9 17.8-13.8 34.8-23 51.1-7.3 12.9-15.3 25.4-24.8 36.8-7.5 9.1-15.5 17.7-24.6 25-7.7 6.2-15.8 11.8-25.5 14.5-4.5 1.3-9.1 1.9-13.7.9-6.5-1.4-10.8-5.8-14.4-10.9-6.3-9.1-9.6-19.5-12.4-30.1-4.9-18.9-9.3-37.9-15.7-56.4-1.6-4.6-3.2-9.2-5.2-13.7-2.9-6.5-7-8.2-13.8-6.1-3 .9-6.1 1.7-9.2 2.4-4.4 1-7.8-.3-10.1-4.3l-.9-1.5c-2.3-3.1-2.3-3.1.7-5.6 8.4-7.3 16.8-14.7 25.4-21.8 6.6-5.5 13.4-10.7 21.2-14.3 3.2-1.5 6.6-2.5 10.1-3.1 8.1-1.5 14 2.1 18.5 8.7 3.8 5.7 6 12.1 7.4 18.8 1.8 9.1 3.3 18.3 4.7 27.5 1.2 7.7 1.7 15.5 3 23.1 1.3 7.5 3.3 14.8 8.4 20.8 1.7 2 3.8 3.9 6.1 5.1 4 2.1 8.5 1 11.9-2.8 3-3.4 5.6-7.1 8-10.9 4.5-7.4 8.6-15 10.7-23.5 1-4.3 1.5-8.8 1.4-13.2-.2-8.8-5.2-13.4-14.1-13.8-3.6-.5-7-.3-11.1-.3z"/></svg>